<svg width="176" height="51" viewBox="0 0 176 51" fill="none" xmlns="http://www.w3.org/2000/svg">
<path d="M34.0625 18.9375V16.75C34.0625 11.9252 30.1372 8 25.3125 8C20.4877 8 16.5625 11.9252 16.5625 16.75V18.9375H10V37.5312C10 40.5516 12.4484 43 15.4688 43H35.1562C38.1766 43 40.625 40.5516 40.625 37.5312V18.9375H34.0625ZM20.9375 16.75C20.9375 14.3376 22.9001 12.375 25.3125 12.375C27.7249 12.375 29.6875 14.3376 29.6875 16.75V18.9375H20.9375V16.75ZM31.875 24.9531C30.9689 24.9531 30.2344 24.2186 30.2344 23.3125C30.2344 22.4064 30.9689 21.6719 31.875 21.6719C32.7811 21.6719 33.5156 22.4064 33.5156 23.3125C33.5156 24.2186 32.7811 24.9531 31.875 24.9531ZM18.75 24.9531C17.8439 24.9531 17.1094 24.2186 17.1094 23.3125C17.1094 22.4064 17.8439 21.6719 18.75 21.6719C19.6561 21.6719 20.3906 22.4064 20.3906 23.3125C20.3906 24.2186 19.6561 24.9531 18.75 24.9531Z" fill="#2A7AE4"/>
<path d="M67.5568 27.2727C67.5568 29.1761 67.196 30.7955 66.4744 32.1307C65.7585 33.4659 64.7813 34.4858 63.5426 35.1903C62.3097 35.8892 60.9233 36.2386 59.3835 36.2386C57.8324 36.2386 56.4403 35.8864 55.2074 35.1818C53.9744 34.4773 53 33.4574 52.2841 32.1222C51.5682 30.7869 51.2102 29.1705 51.2102 27.2727C51.2102 25.3693 51.5682 23.75 52.2841 22.4148C53 21.0795 53.9744 20.0625 55.2074 19.3636C56.4403 18.6591 57.8324 18.3068 59.3835 18.3068C60.9233 18.3068 62.3097 18.6591 63.5426 19.3636C64.7813 20.0625 65.7585 21.0795 66.4744 22.4148C67.196 23.75 67.5568 25.3693 67.5568 27.2727ZM63.8153 27.2727C63.8153 26.0398 63.6307 25 63.2614 24.1534C62.8977 23.3068 62.3835 22.6648 61.7188 22.2273C61.054 21.7898 60.2756 21.571 59.3835 21.571C58.4915 21.571 57.7131 21.7898 57.0483 22.2273C56.3835 22.6648 55.8665 23.3068 55.4972 24.1534C55.1335 25 54.9517 26.0398 54.9517 27.2727C54.9517 28.5057 55.1335 29.5455 55.4972 30.392C55.8665 31.2386 56.3835 31.8807 57.0483 32.3182C57.7131 32.7557 58.4915 32.9744 59.3835 32.9744C60.2756 32.9744 61.054 32.7557 61.7188 32.3182C62.3835 31.8807 62.8977 31.2386 63.2614 30.392C63.6307 29.5455 63.8153 28.5057 63.8153 27.2727ZM77.1854 22.9091V25.6364H69.3018V22.9091H77.1854ZM71.0916 19.7727H74.7223V31.9773C74.7223 32.3125 74.7734 32.5739 74.8757 32.7614C74.978 32.9432 75.12 33.071 75.3018 33.1449C75.4893 33.2187 75.7053 33.2557 75.9496 33.2557C76.12 33.2557 76.2905 33.2415 76.4609 33.2131C76.6314 33.179 76.7621 33.1534 76.853 33.1364L77.424 35.8381C77.2422 35.8949 76.9865 35.9602 76.657 36.0341C76.3274 36.1136 75.9268 36.1619 75.4553 36.179C74.5803 36.2131 73.8132 36.0966 73.1541 35.8295C72.5007 35.5625 71.9922 35.1477 71.6286 34.5852C71.2649 34.0227 71.0859 33.3125 71.0916 32.4545V19.7727ZM83.2834 36.2472C82.4482 36.2472 81.7038 36.1023 81.0504 35.8125C80.397 35.517 79.88 35.0824 79.4993 34.5085C79.1243 33.929 78.9368 33.2074 78.9368 32.3438C78.9368 31.6165 79.0703 31.0057 79.3374 30.5114C79.6044 30.017 79.968 29.6193 80.4283 29.3182C80.8885 29.017 81.4112 28.7898 81.9964 28.6364C82.5874 28.483 83.2067 28.375 83.8544 28.3125C84.6158 28.233 85.2294 28.1591 85.6953 28.0909C86.1612 28.017 86.4993 27.9091 86.7095 27.767C86.9197 27.625 87.0249 27.4148 87.0249 27.1364V27.0852C87.0249 26.5455 86.8544 26.1278 86.5135 25.8324C86.1783 25.5369 85.701 25.3892 85.0817 25.3892C84.4283 25.3892 83.9084 25.5341 83.522 25.8239C83.1357 26.108 82.88 26.4659 82.755 26.8977L79.397 26.625C79.5675 25.8295 79.9027 25.142 80.4027 24.5625C80.9027 23.9773 81.5476 23.5284 82.3374 23.2159C83.1328 22.8977 84.0533 22.7386 85.0987 22.7386C85.826 22.7386 86.522 22.8239 87.1868 22.9943C87.8572 23.1648 88.451 23.429 88.968 23.7869C89.4908 24.1449 89.9027 24.6051 90.2038 25.1676C90.505 25.7244 90.6555 26.392 90.6555 27.1705V36H87.2124V34.1847H87.1101C86.8999 34.5938 86.6186 34.9545 86.2663 35.267C85.9141 35.5739 85.4908 35.8153 84.9964 35.9915C84.5021 36.1619 83.9311 36.2472 83.2834 36.2472ZM84.3232 33.7415C84.8572 33.7415 85.3288 33.6364 85.7379 33.4261C86.147 33.2102 86.468 32.9205 86.701 32.5568C86.9339 32.1932 87.0504 31.7812 87.0504 31.321V29.9318C86.9368 30.0057 86.7805 30.0739 86.5817 30.1364C86.3885 30.1932 86.1697 30.2472 85.9254 30.2983C85.6811 30.3437 85.4368 30.3864 85.1925 30.4261C84.9482 30.4602 84.7266 30.4915 84.5277 30.5199C84.1016 30.5824 83.7294 30.6818 83.4112 30.8182C83.093 30.9545 82.8459 31.1392 82.6697 31.3722C82.4936 31.5994 82.4055 31.8835 82.4055 32.2244C82.4055 32.7188 82.5845 33.0966 82.9425 33.358C83.3061 33.6136 83.7663 33.7415 84.3232 33.7415ZM96.7621 32.233L96.7706 27.8778H97.299L101.492 22.9091H105.66L100.026 29.4886H99.1655L96.7621 32.233ZM93.4723 36V18.5455H97.103V36H93.4723ZM101.654 36L97.8018 30.2983L100.222 27.733L105.907 36H101.654ZM115.836 30.4261V22.9091H119.467V36H115.981V33.6222H115.844C115.549 34.3892 115.058 35.0057 114.37 35.4716C113.688 35.9375 112.856 36.1705 111.873 36.1705C110.998 36.1705 110.228 35.9716 109.563 35.5739C108.898 35.1761 108.379 34.6108 108.004 33.8778C107.634 33.1449 107.447 32.267 107.441 31.2443V22.9091H111.072V30.5966C111.077 31.3693 111.285 31.9801 111.694 32.429C112.103 32.8778 112.651 33.1023 113.339 33.1023C113.776 33.1023 114.185 33.0028 114.566 32.804C114.947 32.5994 115.254 32.2983 115.487 31.9006C115.725 31.5028 115.842 31.0114 115.836 30.4261Z" fill="#464646"/>
<path d="M134.393 27.0195H131.438C131.384 26.6372 131.274 26.2976 131.107 26.0007C130.941 25.6993 130.727 25.4429 130.466 25.2315C130.205 25.0201 129.904 24.8582 129.562 24.7457C129.225 24.6333 128.858 24.5771 128.462 24.5771C127.747 24.5771 127.124 24.7547 126.593 25.1101C126.063 25.4609 125.651 25.9737 125.359 26.6484C125.066 27.3187 124.92 28.1328 124.92 29.0909C124.92 30.076 125.066 30.9036 125.359 31.5739C125.656 32.2441 126.069 32.7501 126.6 33.092C127.131 33.4338 127.745 33.6048 128.442 33.6048C128.833 33.6048 129.196 33.553 129.528 33.4496C129.866 33.3461 130.165 33.1954 130.426 32.9975C130.687 32.7951 130.903 32.55 131.074 32.2621C131.249 31.9742 131.37 31.6458 131.438 31.277L134.393 31.2905C134.317 31.9247 134.125 32.5365 133.82 33.1257C133.518 33.7105 133.111 34.2345 132.598 34.6978C132.09 35.1566 131.483 35.521 130.777 35.7908C130.075 36.0562 129.281 36.1889 128.395 36.1889C127.162 36.1889 126.06 35.91 125.089 35.3523C124.122 34.7945 123.357 33.9871 122.795 32.93C122.237 31.873 121.958 30.5933 121.958 29.0909C121.958 27.584 122.241 26.3021 122.808 25.245C123.375 24.188 124.144 23.3828 125.116 22.8295C126.087 22.2718 127.18 21.9929 128.395 21.9929C129.196 21.9929 129.938 22.1053 130.621 22.3303C131.31 22.5552 131.919 22.8835 132.45 23.3153C132.981 23.7427 133.413 24.2667 133.745 24.8874C134.083 25.5082 134.299 26.2189 134.393 27.0195ZM139.308 30.0085V36H136.434V22.1818H139.227V27.4648H139.349C139.583 26.8531 139.961 26.3741 140.482 26.0277C141.004 25.6768 141.659 25.5014 142.446 25.5014C143.166 25.5014 143.793 25.6589 144.328 25.9737C144.868 26.2841 145.286 26.7317 145.583 27.3164C145.885 27.8967 146.033 28.5916 146.029 29.4013V36H143.154V29.9141C143.159 29.2753 142.997 28.7783 142.669 28.4229C142.345 28.0676 141.89 27.8899 141.306 27.8899C140.914 27.8899 140.568 27.9731 140.267 28.1396C139.97 28.306 139.736 28.5489 139.565 28.8683C139.398 29.1831 139.313 29.5632 139.308 30.0085ZM148.291 36V25.6364H151.165V36H148.291ZM149.734 24.3004C149.307 24.3004 148.941 24.1587 148.635 23.8754C148.333 23.5875 148.183 23.2434 148.183 22.843C148.183 22.4472 148.333 22.1076 148.635 21.8242C148.941 21.5363 149.307 21.3924 149.734 21.3924C150.162 21.3924 150.526 21.5363 150.828 21.8242C151.133 22.1076 151.286 22.4472 151.286 22.843C151.286 23.2434 151.133 23.5875 150.828 23.8754C150.526 24.1587 150.162 24.3004 149.734 24.3004ZM156.342 30.0085V36H153.467V25.6364H156.207V27.4648H156.328C156.558 26.8621 156.942 26.3853 157.482 26.0344C158.022 25.6791 158.676 25.5014 159.445 25.5014C160.165 25.5014 160.792 25.6589 161.328 25.9737C161.863 26.2886 162.279 26.7384 162.576 27.3232C162.873 27.9034 163.021 28.5961 163.021 29.4013V36H160.147V29.9141C160.152 29.2798 159.99 28.785 159.661 28.4297C159.333 28.0698 158.881 27.8899 158.305 27.8899C157.918 27.8899 157.576 27.9731 157.279 28.1396C156.987 28.306 156.758 28.5489 156.591 28.8683C156.429 29.1831 156.346 29.5632 156.342 30.0085ZM168.242 36.1957C167.581 36.1957 166.991 36.081 166.474 35.8516C165.957 35.6177 165.548 35.2736 165.246 34.8192C164.949 34.3604 164.801 33.7892 164.801 33.1055C164.801 32.5297 164.907 32.0462 165.118 31.6548C165.329 31.2635 165.617 30.9486 165.982 30.7102C166.346 30.4718 166.76 30.2919 167.223 30.1705C167.691 30.049 168.181 29.9635 168.694 29.9141C169.297 29.8511 169.783 29.7926 170.151 29.7386C170.52 29.6802 170.788 29.5947 170.954 29.4822C171.121 29.3698 171.204 29.2034 171.204 28.983V28.9425C171.204 28.5152 171.069 28.1845 170.799 27.9506C170.534 27.7167 170.156 27.5998 169.666 27.5998C169.148 27.5998 168.737 27.7145 168.431 27.9439C168.125 28.1688 167.923 28.4522 167.824 28.794L165.165 28.5781C165.3 27.9484 165.566 27.4041 165.961 26.9453C166.357 26.482 166.868 26.1267 167.493 25.8793C168.123 25.6274 168.851 25.5014 169.679 25.5014C170.255 25.5014 170.806 25.5689 171.332 25.7038C171.863 25.8388 172.333 26.0479 172.742 26.3313C173.156 26.6147 173.482 26.979 173.721 27.4244C173.959 27.8652 174.078 28.3937 174.078 29.0099V36H171.352V34.5629H171.271C171.105 34.8867 170.882 35.1723 170.603 35.4197C170.325 35.6626 169.989 35.8538 169.598 35.9933C169.207 36.1282 168.755 36.1957 168.242 36.1957ZM169.065 34.212C169.488 34.212 169.861 34.1288 170.185 33.9624C170.509 33.7914 170.763 33.562 170.948 33.2741C171.132 32.9863 171.224 32.6602 171.224 32.2958V31.196C171.134 31.2545 171.011 31.3085 170.853 31.358C170.7 31.4029 170.527 31.4457 170.334 31.4862C170.14 31.5221 169.947 31.5559 169.753 31.5874C169.56 31.6143 169.384 31.6391 169.227 31.6616C168.89 31.7111 168.595 31.7898 168.343 31.8977C168.091 32.0057 167.896 32.1519 167.756 32.3363C167.617 32.5162 167.547 32.7411 167.547 33.011C167.547 33.4023 167.689 33.7015 167.972 33.9084C168.26 34.1108 168.624 34.212 169.065 34.212Z" fill="#2A7AE4"/>
</svg>
